<?xml version="1.0" encoding="UTF-8" standalone="no"?>
<svg
   width="336"
   zoomAndPan="magnify"
   viewBox="0 0 252 143.999998"
   height="192"
   preserveAspectRatio="xMidYMid meet"
   version="1.0"
   id="svg408"
   sodipodi:docname="icon.svg"
   inkscape:version="1.2.1 (9c6d41e410, 2022-07-14)"
   xmlns:inkscape="http://www.inkscape.org/namespaces/inkscape"
   xmlns:sodipodi="http://sodipodi.sourceforge.net/DTD/sodipodi-0.dtd"
   xmlns="http://www.w3.org/2000/svg"
   xmlns:svg="http://www.w3.org/2000/svg">
  <sodipodi:namedview
     id="namedview410"
     pagecolor="#ffffff"
     bordercolor="#666666"
     borderopacity="1.0"
     inkscape:showpageshadow="2"
     inkscape:pageopacity="0.0"
     inkscape:pagecheckerboard="0"
     inkscape:deskcolor="#d1d1d1"
     showgrid="false"
     inkscape:zoom="3.6011905"
     inkscape:cx="175.49752"
     inkscape:cy="96.079339"
     inkscape:window-width="1920"
     inkscape:window-height="1017"
     inkscape:window-x="1912"
     inkscape:window-y="-8"
     inkscape:window-maximized="1"
     inkscape:current-layer="svg408" />
  <defs
     id="defs212">
    <g
       id="g207" />
    <clipPath
       id="19327fcaf3">
      <path
         d="M 89.34375 30.652344 L 162.84375 30.652344 L 162.84375 79.402344 L 89.34375 79.402344 Z M 89.34375 30.652344 "
         clip-rule="nonzero"
         id="path209" />
    </clipPath>
  </defs>
  <g
     fill="#fff6ed"
     fill-opacity="1"
     id="g378">
    <g
       transform="translate(130.026761, 114.653529)"
       id="g376">
      <g
         id="g374" />
    </g>
  </g>
  <g
     clip-path="url(#19327fcaf3)"
     id="g406"
     transform="matrix(2.3816483,0,0,2.1685281,-178.6695,-49.147054)">
    <path
       fill="#5dafbd"
       d="m 129.10937,30.652344 c 6.46094,0 12.28907,2.703125 16.41407,7.046875 l -5.19532,5.195312 c -2.79296,-3.015625 -6.78515,-4.902343 -11.21875,-4.902343 -8.44531,0 -15.28906,6.847656 -15.28906,15.292968 0,3.296875 1.04297,6.351563 2.82032,8.851563 -2.77344,-0.06641 -5.51954,0.03516 -8.19922,0.378906 -1.26172,-2.816406 -1.96485,-5.941406 -1.96485,-9.230469 0,-12.5 10.13282,-22.632812 22.63281,-22.632812 z m 33.51954,31.921875 c -4.73047,3.789062 -13.58594,4.734375 -26.56641,2.828125 -16.16016,-2.359375 -34.26172,-5.503906 -46.691406,7.460937 4.941406,-5.15625 12.757816,-6.359375 21.539066,-6.121093 0.44531,0.601562 0.91797,1.179687 1.41797,1.730468 7.80078,-0.367187 15.98828,0.941406 23.73437,2.074219 2.38672,0.347656 4.63281,0.601563 6.74219,0.761719 0.74609,-0.570313 1.45703,-1.183594 2.125,-1.839844 7.66015,-0.113281 14.07812,-1.730469 17.69922,-6.894531 z m -23.32422,2.105469 c 0.35547,-0.320313 0.69531,-0.652344 1.02343,-1.003907 l 1.23438,1.238281 c -0.73438,-0.06641 -1.48828,-0.144531 -2.25781,-0.234374 z m -5.17188,10.679687 c -1.61719,0.367187 -3.29687,0.558594 -5.02344,0.558594 -3.44921,0 -6.71874,-0.773438 -9.64453,-2.152344 C 107.35156,72.585938 95.875,72.523438 89.371094,79.308594 101.80078,66.339844 119.90234,69.484375 136.0625,71.84375 c 12.98047,1.90625 21.83594,0.964844 26.56641,-2.824219 -5.23047,7.457031 -16.28125,7.519531 -28.4961,6.339844 z m 0,0"
       fill-opacity="1"
       fill-rule="evenodd"
       id="path404" />
  </g>
</svg>
