<svg xmlns="http://www.w3.org/2000/svg" xmlns:xlink="http://www.w3.org/1999/xlink" width="336" zoomAndPan="magnify" viewBox="0 0 252 143.999998" height="192" preserveAspectRatio="xMidYMid meet" version="1.0"><defs><g/><clipPath id="19327fcaf3"><path d="M 89.34375 30.652344 L 162.84375 30.652344 L 162.84375 79.402344 L 89.34375 79.402344 Z M 89.34375 30.652344 " clip-rule="nonzero"/></clipPath></defs><g fill="#fff6ed" fill-opacity="1"><g transform="translate(91.990075, 93.330132)"><g><path d="M 8.015625 -3.46875 C 7.953125 -2.289062 7.625 -1.390625 7.03125 -0.765625 C 6.4375 -0.148438 5.59375 0.15625 4.5 0.15625 C 3.40625 0.15625 2.535156 -0.257812 1.890625 -1.09375 C 1.242188 -1.925781 0.921875 -3.054688 0.921875 -4.484375 L 0.921875 -6.453125 C 0.921875 -7.867188 1.253906 -8.988281 1.921875 -9.8125 C 2.585938 -10.644531 3.488281 -11.0625 4.625 -11.0625 C 5.675781 -11.0625 6.488281 -10.742188 7.0625 -10.109375 C 7.644531 -9.472656 7.960938 -8.570312 8.015625 -7.40625 L 6.625 -7.40625 C 6.570312 -8.289062 6.382812 -8.921875 6.0625 -9.296875 C 5.75 -9.679688 5.269531 -9.875 4.625 -9.875 C 3.882812 -9.875 3.3125 -9.582031 2.90625 -9 C 2.507812 -8.414062 2.3125 -7.5625 2.3125 -6.4375 L 2.3125 -4.4375 C 2.3125 -3.332031 2.5 -2.484375 2.875 -1.890625 C 3.25 -1.304688 3.789062 -1.015625 4.5 -1.015625 C 5.21875 -1.015625 5.734375 -1.191406 6.046875 -1.546875 C 6.359375 -1.898438 6.550781 -2.539062 6.625 -3.46875 Z M 8.015625 -3.46875 "/></g></g></g><g fill="#fff6ed" fill-opacity="1"><g transform="translate(102.221205, 93.330132)"><g><path d="M 8.265625 -4.5 C 8.265625 -3.007812 7.945312 -1.859375 7.3125 -1.046875 C 6.6875 -0.242188 5.785156 0.15625 4.609375 0.15625 C 3.484375 0.15625 2.59375 -0.234375 1.9375 -1.015625 C 1.289062 -1.796875 0.957031 -2.90625 0.9375 -4.34375 L 0.9375 -6.390625 C 0.9375 -7.847656 1.257812 -8.988281 1.90625 -9.8125 C 2.550781 -10.644531 3.445312 -11.0625 4.59375 -11.0625 C 5.75 -11.0625 6.644531 -10.664062 7.28125 -9.875 C 7.925781 -9.082031 8.253906 -7.953125 8.265625 -6.484375 Z M 6.90625 -6.40625 C 6.90625 -7.5625 6.710938 -8.421875 6.328125 -8.984375 C 5.953125 -9.546875 5.375 -9.828125 4.59375 -9.828125 C 3.84375 -9.828125 3.273438 -9.539062 2.890625 -8.96875 C 2.503906 -8.394531 2.304688 -7.554688 2.296875 -6.453125 L 2.296875 -4.5 C 2.296875 -3.382812 2.488281 -2.535156 2.875 -1.953125 C 3.269531 -1.367188 3.847656 -1.078125 4.609375 -1.078125 C 5.378906 -1.078125 5.945312 -1.34375 6.3125 -1.875 C 6.6875 -2.414062 6.882812 -3.242188 6.90625 -4.359375 Z M 6.90625 -6.40625 "/></g></g></g><g fill="#fff6ed" fill-opacity="1"><g transform="translate(112.969176, 93.330132)"><g><path d="M 6.265625 -2.84375 L 2.578125 -2.84375 L 1.734375 0 L 0.328125 0 L 3.84375 -10.90625 L 5.015625 -10.90625 L 8.53125 0 L 7.125 0 Z M 2.9375 -4.03125 L 5.90625 -4.03125 L 4.421875 -8.984375 Z M 2.9375 -4.03125 "/></g></g></g><g fill="#fff6ed" fill-opacity="1"><g transform="translate(123.342623, 93.330132)"><g><path d="M 5.9375 -2.75 C 5.9375 -3.300781 5.789062 -3.71875 5.5 -4 C 5.207031 -4.289062 4.675781 -4.570312 3.90625 -4.84375 C 3.132812 -5.125 2.546875 -5.414062 2.140625 -5.71875 C 1.734375 -6.019531 1.425781 -6.363281 1.21875 -6.75 C 1.019531 -7.132812 0.921875 -7.578125 0.921875 -8.078125 C 0.921875 -8.941406 1.207031 -9.65625 1.78125 -10.21875 C 2.363281 -10.78125 3.117188 -11.0625 4.046875 -11.0625 C 4.691406 -11.0625 5.265625 -10.914062 5.765625 -10.625 C 6.265625 -10.34375 6.644531 -9.945312 6.90625 -9.4375 C 7.175781 -8.925781 7.3125 -8.363281 7.3125 -7.75 L 5.9375 -7.75 C 5.9375 -8.425781 5.773438 -8.945312 5.453125 -9.3125 C 5.128906 -9.6875 4.660156 -9.875 4.046875 -9.875 C 3.492188 -9.875 3.066406 -9.71875 2.765625 -9.40625 C 2.460938 -9.101562 2.3125 -8.671875 2.3125 -8.109375 C 2.3125 -7.648438 2.472656 -7.265625 2.796875 -6.953125 C 3.128906 -6.640625 3.640625 -6.363281 4.328125 -6.125 C 5.398438 -5.769531 6.164062 -5.332031 6.625 -4.8125 C 7.09375 -4.289062 7.328125 -3.609375 7.328125 -2.765625 C 7.328125 -1.890625 7.039062 -1.179688 6.46875 -0.640625 C 5.894531 -0.109375 5.113281 0.15625 4.125 0.15625 C 3.488281 0.15625 2.898438 0.015625 2.359375 -0.265625 C 1.828125 -0.546875 1.40625 -0.9375 1.09375 -1.4375 C 0.789062 -1.9375 0.640625 -2.507812 0.640625 -3.15625 L 2.015625 -3.15625 C 2.015625 -2.488281 2.203125 -1.96875 2.578125 -1.59375 C 2.953125 -1.21875 3.46875 -1.03125 4.125 -1.03125 C 4.726562 -1.03125 5.179688 -1.179688 5.484375 -1.484375 C 5.785156 -1.796875 5.9375 -2.21875 5.9375 -2.75 Z M 5.9375 -2.75 "/></g></g></g><g fill="#fff6ed" fill-opacity="1"><g transform="translate(132.824705, 93.330132)"><g><path d="M 7.546875 -9.71875 L 4.6875 -9.71875 L 4.6875 0 L 3.3125 0 L 3.3125 -9.71875 L 0.453125 -9.71875 L 0.453125 -10.90625 L 7.546875 -10.90625 Z M 7.546875 -9.71875 "/></g></g></g><g fill="#fff6ed" fill-opacity="1"><g transform="translate(142.344239, 93.330132)"><g><path d="M 6.265625 -2.84375 L 2.578125 -2.84375 L 1.734375 0 L 0.328125 0 L 3.84375 -10.90625 L 5.015625 -10.90625 L 8.53125 0 L 7.125 0 Z M 2.9375 -4.03125 L 5.90625 -4.03125 L 4.421875 -8.984375 Z M 2.9375 -4.03125 "/></g></g></g><g fill="#fff6ed" fill-opacity="1"><g transform="translate(152.717688, 93.330132)"><g><path d="M 2.5625 -1.171875 L 6.828125 -1.171875 L 6.828125 0 L 1.171875 0 L 1.171875 -10.90625 L 2.5625 -10.90625 Z M 2.5625 -1.171875 "/></g></g></g><g fill="#fff6ed" fill-opacity="1"><g transform="translate(88.736953, 104.445716)"><g><path d="M 4.8125 0 L 4.09375 0 L 4.09375 -2.515625 L 1.34375 -2.515625 L 1.34375 0 L 0.625 0 L 0.625 -5.4375 L 1.34375 -5.4375 L 1.34375 -3.109375 L 4.09375 -3.109375 L 4.09375 -5.4375 L 4.8125 -5.4375 Z M 4.8125 0 "/></g></g></g><g fill="#fff6ed" fill-opacity="1"><g transform="translate(98.022674, 104.445716)"><g><path d="M 3.640625 -1.421875 L 1.359375 -1.421875 L 0.84375 0 L 0.109375 0 L 2.1875 -5.4375 L 2.8125 -5.4375 L 4.890625 0 L 4.15625 0 Z M 1.578125 -2.015625 L 3.421875 -2.015625 L 2.5 -4.5625 Z M 1.578125 -2.015625 "/></g></g></g><g fill="#fff6ed" fill-opacity="1"><g transform="translate(106.844856, 104.445716)"><g><path d="M 2.625 -2.203125 L 1.34375 -2.203125 L 1.34375 0 L 0.625 0 L 0.625 -5.4375 L 2.4375 -5.4375 C 3.039062 -5.4375 3.507812 -5.296875 3.84375 -5.015625 C 4.175781 -4.742188 4.34375 -4.34375 4.34375 -3.8125 C 4.34375 -3.46875 4.25 -3.171875 4.0625 -2.921875 C 3.882812 -2.671875 3.628906 -2.484375 3.296875 -2.359375 L 4.578125 -0.046875 L 4.578125 0 L 3.8125 0 Z M 1.34375 -2.78125 L 2.453125 -2.78125 C 2.804688 -2.78125 3.085938 -2.875 3.296875 -3.0625 C 3.515625 -3.25 3.625 -3.5 3.625 -3.8125 C 3.625 -4.144531 3.519531 -4.398438 3.3125 -4.578125 C 3.113281 -4.753906 2.828125 -4.847656 2.453125 -4.859375 L 1.34375 -4.859375 Z M 1.34375 -2.78125 "/></g></g></g><g fill="#fff6ed" fill-opacity="1"><g transform="translate(115.386673, 104.445716)"><g><path d="M 0.625 0 L 0.625 -5.4375 L 2.171875 -5.4375 C 2.640625 -5.4375 3.054688 -5.332031 3.421875 -5.125 C 3.785156 -4.914062 4.066406 -4.617188 4.265625 -4.234375 C 4.460938 -3.847656 4.5625 -3.40625 4.5625 -2.90625 L 4.5625 -2.5625 C 4.5625 -2.039062 4.460938 -1.585938 4.265625 -1.203125 C 4.066406 -0.816406 3.785156 -0.519531 3.421875 -0.3125 C 3.054688 -0.101562 2.628906 0 2.140625 0 Z M 1.34375 -4.859375 L 1.34375 -0.59375 L 2.109375 -0.59375 C 2.660156 -0.59375 3.085938 -0.765625 3.390625 -1.109375 C 3.703125 -1.453125 3.859375 -1.941406 3.859375 -2.578125 L 3.859375 -2.890625 C 3.859375 -3.503906 3.710938 -3.984375 3.421875 -4.328125 C 3.128906 -4.671875 2.71875 -4.847656 2.1875 -4.859375 Z M 1.34375 -4.859375 "/></g></g></g><g fill="#fff6ed" fill-opacity="1"><g transform="translate(124.235023, 104.445716)"><g><path d="M 2.234375 -2.421875 C 1.617188 -2.597656 1.171875 -2.816406 0.890625 -3.078125 C 0.609375 -3.335938 0.46875 -3.65625 0.46875 -4.03125 C 0.46875 -4.457031 0.640625 -4.8125 0.984375 -5.09375 C 1.328125 -5.375 1.773438 -5.515625 2.328125 -5.515625 C 2.691406 -5.515625 3.019531 -5.441406 3.3125 -5.296875 C 3.613281 -5.148438 3.84375 -4.953125 4 -4.703125 C 4.164062 -4.453125 4.25 -4.175781 4.25 -3.875 L 3.515625 -3.875 C 3.515625 -4.195312 3.410156 -4.453125 3.203125 -4.640625 C 2.992188 -4.828125 2.703125 -4.921875 2.328125 -4.921875 C 1.972656 -4.921875 1.695312 -4.84375 1.5 -4.6875 C 1.300781 -4.53125 1.203125 -4.316406 1.203125 -4.046875 C 1.203125 -3.828125 1.296875 -3.640625 1.484375 -3.484375 C 1.671875 -3.328125 1.988281 -3.1875 2.4375 -3.0625 C 2.894531 -2.9375 3.25 -2.796875 3.5 -2.640625 C 3.757812 -2.484375 3.945312 -2.300781 4.0625 -2.09375 C 4.1875 -1.894531 4.25 -1.660156 4.25 -1.390625 C 4.25 -0.941406 4.078125 -0.582031 3.734375 -0.3125 C 3.390625 -0.0507812 2.929688 0.078125 2.359375 0.078125 C 1.984375 0.078125 1.632812 0.00390625 1.3125 -0.140625 C 0.988281 -0.285156 0.738281 -0.484375 0.5625 -0.734375 C 0.382812 -0.984375 0.296875 -1.265625 0.296875 -1.578125 L 1.015625 -1.578125 C 1.015625 -1.242188 1.132812 -0.984375 1.375 -0.796875 C 1.625 -0.609375 1.953125 -0.515625 2.359375 -0.515625 C 2.734375 -0.515625 3.019531 -0.585938 3.21875 -0.734375 C 3.425781 -0.890625 3.53125 -1.101562 3.53125 -1.375 C 3.53125 -1.644531 3.4375 -1.851562 3.25 -2 C 3.0625 -2.144531 2.722656 -2.285156 2.234375 -2.421875 Z M 2.234375 -2.421875 "/></g></g></g><g fill="#fff6ed" fill-opacity="1"><g transform="translate(132.604882, 104.445716)"><g><path d="M 4.640625 -1.734375 C 4.566406 -1.148438 4.351562 -0.703125 4 -0.390625 C 3.644531 -0.078125 3.171875 0.078125 2.578125 0.078125 C 1.929688 0.078125 1.410156 -0.148438 1.015625 -0.609375 C 0.628906 -1.078125 0.4375 -1.695312 0.4375 -2.46875 L 0.4375 -2.984375 C 0.4375 -3.492188 0.523438 -3.941406 0.703125 -4.328125 C 0.890625 -4.710938 1.148438 -5.003906 1.484375 -5.203125 C 1.816406 -5.410156 2.203125 -5.515625 2.640625 -5.515625 C 3.210938 -5.515625 3.671875 -5.351562 4.015625 -5.03125 C 4.367188 -4.707031 4.578125 -4.257812 4.640625 -3.6875 L 3.921875 -3.6875 C 3.859375 -4.125 3.722656 -4.4375 3.515625 -4.625 C 3.304688 -4.820312 3.015625 -4.921875 2.640625 -4.921875 C 2.179688 -4.921875 1.820312 -4.75 1.5625 -4.40625 C 1.300781 -4.070312 1.171875 -3.59375 1.171875 -2.96875 L 1.171875 -2.4375 C 1.171875 -1.851562 1.289062 -1.382812 1.53125 -1.03125 C 1.78125 -0.6875 2.128906 -0.515625 2.578125 -0.515625 C 2.972656 -0.515625 3.273438 -0.601562 3.484375 -0.78125 C 3.703125 -0.957031 3.847656 -1.273438 3.921875 -1.734375 Z M 4.640625 -1.734375 "/></g></g></g><g fill="#fff6ed" fill-opacity="1"><g transform="translate(141.415849, 104.445716)"><g><path d="M 3.640625 -1.421875 L 1.359375 -1.421875 L 0.84375 0 L 0.109375 0 L 2.1875 -5.4375 L 2.8125 -5.4375 L 4.890625 0 L 4.15625 0 Z M 1.578125 -2.015625 L 3.421875 -2.015625 L 2.5 -4.5625 Z M 1.578125 -2.015625 "/></g></g></g><g fill="#fff6ed" fill-opacity="1"><g transform="translate(150.238032, 104.445716)"><g><path d="M 1.34375 -2.125 L 1.34375 0 L 0.625 0 L 0.625 -5.4375 L 2.640625 -5.4375 C 3.234375 -5.4375 3.695312 -5.285156 4.03125 -4.984375 C 4.375 -4.679688 4.546875 -4.28125 4.546875 -3.78125 C 4.546875 -3.25 4.378906 -2.835938 4.046875 -2.546875 C 3.722656 -2.265625 3.25 -2.125 2.625 -2.125 Z M 1.34375 -2.71875 L 2.640625 -2.71875 C 3.023438 -2.71875 3.316406 -2.804688 3.515625 -2.984375 C 3.722656 -3.171875 3.828125 -3.429688 3.828125 -3.765625 C 3.828125 -4.097656 3.722656 -4.359375 3.515625 -4.546875 C 3.316406 -4.742188 3.039062 -4.847656 2.6875 -4.859375 L 1.34375 -4.859375 Z M 1.34375 -2.71875 "/></g></g></g><g fill="#fff6ed" fill-opacity="1"><g transform="translate(158.895733, 104.445716)"><g><path d="M 3.703125 -2.515625 L 1.34375 -2.515625 L 1.34375 -0.59375 L 4.09375 -0.59375 L 4.09375 0 L 0.625 0 L 0.625 -5.4375 L 4.046875 -5.4375 L 4.046875 -4.859375 L 1.34375 -4.859375 L 1.34375 -3.109375 L 3.703125 -3.109375 Z M 3.703125 -2.515625 "/></g></g></g><g fill="#fff6ed" fill-opacity="1"><g transform="translate(95.366051, 114.653529)"><g><path d="M 1.34375 -2.125 L 1.34375 0 L 0.625 0 L 0.625 -5.4375 L 2.640625 -5.4375 C 3.234375 -5.4375 3.695312 -5.285156 4.03125 -4.984375 C 4.375 -4.679688 4.546875 -4.28125 4.546875 -3.78125 C 4.546875 -3.25 4.378906 -2.835938 4.046875 -2.546875 C 3.722656 -2.265625 3.25 -2.125 2.625 -2.125 Z M 1.34375 -2.71875 L 2.640625 -2.71875 C 3.023438 -2.71875 3.316406 -2.804688 3.515625 -2.984375 C 3.722656 -3.171875 3.828125 -3.429688 3.828125 -3.765625 C 3.828125 -4.097656 3.722656 -4.359375 3.515625 -4.546875 C 3.316406 -4.742188 3.039062 -4.847656 2.6875 -4.859375 L 1.34375 -4.859375 Z M 1.34375 -2.71875 "/></g></g></g><g fill="#fff6ed" fill-opacity="1"><g transform="translate(104.023752, 114.653529)"><g><path d="M 2.625 -2.203125 L 1.34375 -2.203125 L 1.34375 0 L 0.625 0 L 0.625 -5.4375 L 2.4375 -5.4375 C 3.039062 -5.4375 3.507812 -5.296875 3.84375 -5.015625 C 4.175781 -4.742188 4.34375 -4.34375 4.34375 -3.8125 C 4.34375 -3.46875 4.25 -3.171875 4.0625 -2.921875 C 3.882812 -2.671875 3.628906 -2.484375 3.296875 -2.359375 L 4.578125 -0.046875 L 4.578125 0 L 3.8125 0 Z M 1.34375 -2.78125 L 2.453125 -2.78125 C 2.804688 -2.78125 3.085938 -2.875 3.296875 -3.0625 C 3.515625 -3.25 3.625 -3.5 3.625 -3.8125 C 3.625 -4.144531 3.519531 -4.398438 3.3125 -4.578125 C 3.113281 -4.753906 2.828125 -4.847656 2.453125 -4.859375 L 1.34375 -4.859375 Z M 1.34375 -2.78125 "/></g></g></g><g fill="#fff6ed" fill-opacity="1"><g transform="translate(112.565568, 114.653529)"><g><path d="M 4.8125 -2.546875 C 4.8125 -2.015625 4.722656 -1.546875 4.546875 -1.140625 C 4.367188 -0.742188 4.113281 -0.441406 3.78125 -0.234375 C 3.457031 -0.0234375 3.078125 0.078125 2.640625 0.078125 C 2.210938 0.078125 1.832031 -0.0234375 1.5 -0.234375 C 1.164062 -0.453125 0.90625 -0.753906 0.71875 -1.140625 C 0.539062 -1.535156 0.445312 -1.988281 0.4375 -2.5 L 0.4375 -2.890625 C 0.4375 -3.410156 0.523438 -3.867188 0.703125 -4.265625 C 0.890625 -4.671875 1.148438 -4.976562 1.484375 -5.1875 C 1.816406 -5.40625 2.195312 -5.515625 2.625 -5.515625 C 3.0625 -5.515625 3.445312 -5.410156 3.78125 -5.203125 C 4.113281 -4.992188 4.367188 -4.6875 4.546875 -4.28125 C 4.722656 -3.882812 4.8125 -3.421875 4.8125 -2.890625 Z M 4.109375 -2.890625 C 4.109375 -3.535156 3.976562 -4.03125 3.71875 -4.375 C 3.457031 -4.726562 3.09375 -4.90625 2.625 -4.90625 C 2.175781 -4.90625 1.820312 -4.726562 1.5625 -4.375 C 1.300781 -4.03125 1.164062 -3.554688 1.15625 -2.953125 L 1.15625 -2.546875 C 1.15625 -1.921875 1.285156 -1.425781 1.546875 -1.0625 C 1.804688 -0.707031 2.171875 -0.53125 2.640625 -0.53125 C 3.097656 -0.53125 3.453125 -0.695312 3.703125 -1.03125 C 3.960938 -1.375 4.097656 -1.863281 4.109375 -2.5 Z M 4.109375 -2.890625 "/></g></g></g><g fill="#fff6ed" fill-opacity="1"><g transform="translate(121.656902, 114.653529)"><g><path d="M 2.234375 -2.421875 C 1.617188 -2.597656 1.171875 -2.816406 0.890625 -3.078125 C 0.609375 -3.335938 0.46875 -3.65625 0.46875 -4.03125 C 0.46875 -4.457031 0.640625 -4.8125 0.984375 -5.09375 C 1.328125 -5.375 1.773438 -5.515625 2.328125 -5.515625 C 2.691406 -5.515625 3.019531 -5.441406 3.3125 -5.296875 C 3.613281 -5.148438 3.84375 -4.953125 4 -4.703125 C 4.164062 -4.453125 4.25 -4.175781 4.25 -3.875 L 3.515625 -3.875 C 3.515625 -4.195312 3.410156 -4.453125 3.203125 -4.640625 C 2.992188 -4.828125 2.703125 -4.921875 2.328125 -4.921875 C 1.972656 -4.921875 1.695312 -4.84375 1.5 -4.6875 C 1.300781 -4.53125 1.203125 -4.316406 1.203125 -4.046875 C 1.203125 -3.828125 1.296875 -3.640625 1.484375 -3.484375 C 1.671875 -3.328125 1.988281 -3.1875 2.4375 -3.0625 C 2.894531 -2.9375 3.25 -2.796875 3.5 -2.640625 C 3.757812 -2.484375 3.945312 -2.300781 4.0625 -2.09375 C 4.1875 -1.894531 4.25 -1.660156 4.25 -1.390625 C 4.25 -0.941406 4.078125 -0.582031 3.734375 -0.3125 C 3.390625 -0.0507812 2.929688 0.078125 2.359375 0.078125 C 1.984375 0.078125 1.632812 0.00390625 1.3125 -0.140625 C 0.988281 -0.285156 0.738281 -0.484375 0.5625 -0.734375 C 0.382812 -0.984375 0.296875 -1.265625 0.296875 -1.578125 L 1.015625 -1.578125 C 1.015625 -1.242188 1.132812 -0.984375 1.375 -0.796875 C 1.625 -0.609375 1.953125 -0.515625 2.359375 -0.515625 C 2.734375 -0.515625 3.019531 -0.585938 3.21875 -0.734375 C 3.425781 -0.890625 3.53125 -1.101562 3.53125 -1.375 C 3.53125 -1.644531 3.4375 -1.851562 3.25 -2 C 3.0625 -2.144531 2.722656 -2.285156 2.234375 -2.421875 Z M 2.234375 -2.421875 "/></g></g></g><g fill="#fff6ed" fill-opacity="1"><g transform="translate(130.026761, 114.653529)"><g/></g></g><g fill="#fff6ed" fill-opacity="1"><g transform="translate(135.749965, 114.653529)"><g><path d="M 1.359375 -0.59375 L 3.9375 -0.59375 L 3.9375 0 L 0.625 0 L 0.625 -5.4375 L 1.359375 -5.4375 Z M 1.359375 -0.59375 "/></g></g></g><g fill="#fff6ed" fill-opacity="1"><g transform="translate(143.697405, 114.653529)"><g><path d="M 1.359375 -0.59375 L 3.9375 -0.59375 L 3.9375 0 L 0.625 0 L 0.625 -5.4375 L 1.359375 -5.4375 Z M 1.359375 -0.59375 "/></g></g></g><g fill="#fff6ed" fill-opacity="1"><g transform="translate(151.644846, 114.653529)"><g><path d="M 4.640625 -1.734375 C 4.566406 -1.148438 4.351562 -0.703125 4 -0.390625 C 3.644531 -0.078125 3.171875 0.078125 2.578125 0.078125 C 1.929688 0.078125 1.410156 -0.148438 1.015625 -0.609375 C 0.628906 -1.078125 0.4375 -1.695312 0.4375 -2.46875 L 0.4375 -2.984375 C 0.4375 -3.492188 0.523438 -3.941406 0.703125 -4.328125 C 0.890625 -4.710938 1.148438 -5.003906 1.484375 -5.203125 C 1.816406 -5.410156 2.203125 -5.515625 2.640625 -5.515625 C 3.210938 -5.515625 3.671875 -5.351562 4.015625 -5.03125 C 4.367188 -4.707031 4.578125 -4.257812 4.640625 -3.6875 L 3.921875 -3.6875 C 3.859375 -4.125 3.722656 -4.4375 3.515625 -4.625 C 3.304688 -4.820312 3.015625 -4.921875 2.640625 -4.921875 C 2.179688 -4.921875 1.820312 -4.75 1.5625 -4.40625 C 1.300781 -4.070312 1.171875 -3.59375 1.171875 -2.96875 L 1.171875 -2.4375 C 1.171875 -1.851562 1.289062 -1.382812 1.53125 -1.03125 C 1.78125 -0.6875 2.128906 -0.515625 2.578125 -0.515625 C 2.972656 -0.515625 3.273438 -0.601562 3.484375 -0.78125 C 3.703125 -0.957031 3.847656 -1.273438 3.921875 -1.734375 Z M 4.640625 -1.734375 "/></g></g></g><g clip-path="url(#19327fcaf3)"><path fill="#5dafbd" d="M 129.109375 30.652344 C 135.570312 30.652344 141.398438 33.355469 145.523438 37.699219 L 140.328125 42.894531 C 137.535156 39.878906 133.542969 37.992188 129.109375 37.992188 C 120.664062 37.992188 113.820312 44.839844 113.820312 53.285156 C 113.820312 56.582031 114.863281 59.636719 116.640625 62.136719 C 113.867188 62.070312 111.121094 62.171875 108.441406 62.515625 C 107.179688 59.699219 106.476562 56.574219 106.476562 53.285156 C 106.476562 40.785156 116.609375 30.652344 129.109375 30.652344 Z M 162.628906 62.574219 C 157.898438 66.363281 149.042969 67.308594 136.0625 65.402344 C 119.902344 63.042969 101.800781 59.898438 89.371094 72.863281 C 94.3125 67.707031 102.128906 66.503906 110.910156 66.742188 C 111.355469 67.34375 111.828125 67.921875 112.328125 68.472656 C 120.128906 68.105469 128.316406 69.414062 136.0625 70.546875 C 138.449219 70.894531 140.695312 71.148438 142.804688 71.308594 C 143.550781 70.738281 144.261719 70.125 144.929688 69.46875 C 152.589844 69.355469 159.007812 67.738281 162.628906 62.574219 Z M 139.304688 64.679688 C 139.660156 64.359375 140 64.027344 140.328125 63.675781 L 141.5625 64.914062 C 140.828125 64.847656 140.074219 64.769531 139.304688 64.679688 Z M 134.132812 75.359375 C 132.515625 75.726562 130.835938 75.917969 129.109375 75.917969 C 125.660156 75.917969 122.390625 75.144531 119.464844 73.765625 C 107.351562 72.585938 95.875 72.523438 89.371094 79.308594 C 101.800781 66.339844 119.902344 69.484375 136.0625 71.84375 C 149.042969 73.75 157.898438 72.808594 162.628906 69.019531 C 157.398438 76.476562 146.347656 76.539062 134.132812 75.359375 Z M 134.132812 75.359375 " fill-opacity="1" fill-rule="evenodd"/></g></svg>