<?xml version="1.0" encoding="UTF-8" standalone="no"?>
<svg
   width="336"
   zoomAndPan="magnify"
   viewBox="0 0 252 143.999998"
   height="192"
   preserveAspectRatio="xMidYMid meet"
   version="1.0"
   id="svg203"
   sodipodi:docname="logo.svg"
   inkscape:version="1.2.1 (9c6d41e410, 2022-07-14)"
   xmlns:inkscape="http://www.inkscape.org/namespaces/inkscape"
   xmlns:sodipodi="http://sodipodi.sourceforge.net/DTD/sodipodi-0.dtd"
   xmlns="http://www.w3.org/2000/svg"
   xmlns:svg="http://www.w3.org/2000/svg">
  <sodipodi:namedview
     id="namedview205"
     pagecolor="#ffffff"
     bordercolor="#666666"
     borderopacity="1.0"
     inkscape:showpageshadow="2"
     inkscape:pageopacity="0.0"
     inkscape:pagecheckerboard="0"
     inkscape:deskcolor="#d1d1d1"
     showgrid="false"
     inkscape:zoom="3.6011905"
     inkscape:cx="168"
     inkscape:cy="96.079339"
     inkscape:window-width="1920"
     inkscape:window-height="1017"
     inkscape:window-x="1912"
     inkscape:window-y="-8"
     inkscape:window-maximized="1"
     inkscape:current-layer="svg203" />
  <defs
     id="defs7">
    <g
       id="g2" />
    <clipPath
       id="19327fcaf3">
      <path
         d="M 89.34375 30.652344 L 162.84375 30.652344 L 162.84375 79.402344 L 89.34375 79.402344 Z M 89.34375 30.652344 "
         clip-rule="nonzero"
         id="path4" />
    </clipPath>
  </defs>
  <g
     fill="#fff6ed"
     fill-opacity="1"
     id="g15"
     transform="matrix(1.356907,0,0,1.356907,-52.530524,-26.360816)">
    <g
       transform="translate(91.990075,93.330132)"
       id="g13">
      <g
         id="g11">
        <path
           d="M 8.015625,-3.46875 C 7.953125,-2.289062 7.625,-1.390625 7.03125,-0.765625 6.4375,-0.148438 5.59375,0.15625 4.5,0.15625 c -1.09375,0 -1.964844,-0.414062 -2.609375,-1.25 -0.648437,-0.832031 -0.96875,-1.960938 -0.96875,-3.390625 v -1.96875 c 0,-1.414063 0.332031,-2.535156 1,-3.359375 0.664063,-0.832031 1.566406,-1.25 2.703125,-1.25 1.050781,0 1.863281,0.320312 2.4375,0.953125 0.582031,0.636719 0.898438,1.539063 0.953125,2.703125 H 6.625 C 6.570312,-8.289062 6.382812,-8.921875 6.0625,-9.296875 5.75,-9.679688 5.269531,-9.875 4.625,-9.875 3.882812,-9.875 3.3125,-9.582031 2.90625,-9 2.507812,-8.414062 2.3125,-7.5625 2.3125,-6.4375 v 2 c 0,1.105469 0.1875,1.953125 0.5625,2.546875 0.375,0.585937 0.914062,0.875 1.625,0.875 0.71875,0 1.234375,-0.175781 1.546875,-0.53125 0.3125,-0.351563 0.503906,-0.992187 0.578125,-1.921875 z m 0,0"
           id="path9" />
      </g>
    </g>
  </g>
  <g
     fill="#fff6ed"
     fill-opacity="1"
     id="g23"
     transform="matrix(1.356907,0,0,1.356907,-52.530524,-26.360816)">
    <g
       transform="translate(102.2212,93.330132)"
       id="g21">
      <g
         id="g19">
        <path
           d="m 8.265625,-4.5 c 0,1.492188 -0.320313,2.640625 -0.953125,3.453125 -0.625,0.804687 -1.527344,1.203125 -2.703125,1.203125 -1.125,0 -2.015625,-0.390625 -2.671875,-1.171875 -0.648438,-0.78125 -0.980469,-1.890625 -1,-3.328125 v -2.046875 c 0,-1.457031 0.320312,-2.597656 0.96875,-3.421875 0.644531,-0.832031 1.539062,-1.25 2.6875,-1.25 1.15625,0 2.050781,0.398438 2.6875,1.1875 0.644531,0.792969 0.972656,1.921875 0.984375,3.390625 z M 6.90625,-6.40625 c 0,-1.15625 -0.195312,-2.015625 -0.578125,-2.578125 -0.375,-0.5625 -0.953125,-0.84375 -1.734375,-0.84375 -0.75,0 -1.320312,0.289063 -1.703125,0.859375 -0.386719,0.574219 -0.585937,1.414062 -0.59375,2.515625 V -4.5 c 0,1.117188 0.191406,1.964844 0.578125,2.546875 0.394531,0.585937 0.972656,0.875 1.734375,0.875 0.769531,0 1.335937,-0.265625 1.703125,-0.796875 0.375,-0.539062 0.570312,-1.367188 0.59375,-2.484375 z m 0,0"
           id="path17" />
      </g>
    </g>
  </g>
  <g
     fill="#fff6ed"
     fill-opacity="1"
     id="g31"
     transform="matrix(1.356907,0,0,1.356907,-52.530524,-26.360816)">
    <g
       transform="translate(112.96918,93.330132)"
       id="g29">
      <g
         id="g27">
        <path
           d="m 6.265625,-2.84375 h -3.6875 L 1.734375,0 H 0.328125 L 3.84375,-10.90625 H 5.015625 L 8.53125,0 H 7.125 Z M 2.9375,-4.03125 H 5.90625 L 4.421875,-8.984375 Z m 0,0"
           id="path25" />
      </g>
    </g>
  </g>
  <g
     fill="#fff6ed"
     fill-opacity="1"
     id="g39"
     transform="matrix(1.356907,0,0,1.356907,-52.530524,-26.360816)">
    <g
       transform="translate(123.34262,93.330132)"
       id="g37">
      <g
         id="g35">
        <path
           d="M 5.9375,-2.75 C 5.9375,-3.300781 5.789062,-3.71875 5.5,-4 5.207031,-4.289062 4.675781,-4.570312 3.90625,-4.84375 3.132812,-5.125 2.546875,-5.414062 2.140625,-5.71875 1.734375,-6.019531 1.425781,-6.363281 1.21875,-6.75 1.019531,-7.132812 0.921875,-7.578125 0.921875,-8.078125 c 0,-0.863281 0.285156,-1.578125 0.859375,-2.140625 0.582031,-0.5625 1.335938,-0.84375 2.265625,-0.84375 0.644531,0 1.21875,0.148438 1.71875,0.4375 0.5,0.28125 0.878906,0.679688 1.140625,1.1875 0.269531,0.511719 0.40625,1.074219 0.40625,1.6875 h -1.375 c 0,-0.675781 -0.164062,-1.195312 -0.484375,-1.5625 -0.324219,-0.375 -0.792969,-0.5625 -1.40625,-0.5625 -0.554687,0 -0.980469,0.15625 -1.28125,0.46875 -0.304687,0.304688 -0.453125,0.734375 -0.453125,1.296875 0,0.460937 0.160156,0.84375 0.484375,1.15625 0.332031,0.3125 0.84375,0.589844 1.53125,0.828125 1.070313,0.355469 1.835937,0.792969 2.296875,1.3125 0.46875,0.523438 0.703125,1.203125 0.703125,2.046875 0,0.875 -0.289063,1.585937 -0.859375,2.125 C 5.894531,-0.109375 5.113281,0.15625 4.125,0.15625 3.488281,0.15625 2.898438,0.015625 2.359375,-0.265625 1.828125,-0.546875 1.40625,-0.9375 1.09375,-1.4375 0.789062,-1.9375 0.640625,-2.507812 0.640625,-3.15625 h 1.375 c 0,0.667969 0.1875,1.1875 0.5625,1.5625 0.375,0.375 0.890625,0.5625 1.546875,0.5625 0.601562,0 1.054688,-0.148438 1.359375,-0.453125 C 5.785156,-1.796875 5.9375,-2.21875 5.9375,-2.75 Z m 0,0"
           id="path33" />
      </g>
    </g>
  </g>
  <g
     fill="#fff6ed"
     fill-opacity="1"
     id="g47"
     transform="matrix(1.356907,0,0,1.356907,-52.530524,-26.360816)">
    <g
       transform="translate(132.8247,93.330132)"
       id="g45">
      <g
         id="g43">
        <path
           d="M 7.546875,-9.71875 H 4.6875 V 0 H 3.3125 V -9.71875 H 0.453125 v -1.1875 h 7.09375 z m 0,0"
           id="path41" />
      </g>
    </g>
  </g>
  <g
     fill="#fff6ed"
     fill-opacity="1"
     id="g55"
     transform="matrix(1.356907,0,0,1.356907,-52.530524,-26.360816)">
    <g
       transform="translate(142.34424,93.330132)"
       id="g53">
      <g
         id="g51">
        <path
           d="m 6.265625,-2.84375 h -3.6875 L 1.734375,0 H 0.328125 L 3.84375,-10.90625 H 5.015625 L 8.53125,0 H 7.125 Z M 2.9375,-4.03125 H 5.90625 L 4.421875,-8.984375 Z m 0,0"
           id="path49" />
      </g>
    </g>
  </g>
  <g
     fill="#fff6ed"
     fill-opacity="1"
     id="g63"
     transform="matrix(1.356907,0,0,1.356907,-52.530524,-26.360816)">
    <g
       transform="translate(152.71769,93.330132)"
       id="g61">
      <g
         id="g59">
        <path
           d="M 2.5625,-1.171875 H 6.828125 V 0 H 1.171875 V -10.90625 H 2.5625 Z m 0,0"
           id="path57" />
      </g>
    </g>
  </g>
  <g
     fill="#fff6ed"
     fill-opacity="1"
     id="g71"
     transform="matrix(1.356907,0,0,1.356907,-52.530524,-26.360816)">
    <g
       transform="translate(88.736953,104.44572)"
       id="g69">
      <g
         id="g67">
        <path
           d="M 4.8125,0 H 4.09375 v -2.515625 h -2.75 V 0 H 0.625 v -5.4375 h 0.71875 v 2.328125 h 2.75 V -5.4375 H 4.8125 Z m 0,0"
           id="path65" />
      </g>
    </g>
  </g>
  <g
     fill="#fff6ed"
     fill-opacity="1"
     id="g79"
     transform="matrix(1.356907,0,0,1.356907,-52.530524,-26.360816)">
    <g
       transform="translate(98.022674,104.44572)"
       id="g77">
      <g
         id="g75">
        <path
           d="M 3.640625,-1.421875 H 1.359375 L 0.84375,0 H 0.109375 L 2.1875,-5.4375 h 0.625 L 4.890625,0 H 4.15625 Z m -2.0625,-0.59375 h 1.84375 L 2.5,-4.5625 Z m 0,0"
           id="path73" />
      </g>
    </g>
  </g>
  <g
     fill="#fff6ed"
     fill-opacity="1"
     id="g87"
     transform="matrix(1.356907,0,0,1.356907,-52.530524,-26.360816)">
    <g
       transform="translate(106.84486,104.44572)"
       id="g85">
      <g
         id="g83">
        <path
           d="M 2.625,-2.203125 H 1.34375 V 0 H 0.625 v -5.4375 h 1.8125 c 0.601562,0 1.070312,0.140625 1.40625,0.421875 0.332031,0.273437 0.5,0.671875 0.5,1.203125 0,0.34375 -0.09375,0.640625 -0.28125,0.890625 -0.179688,0.25 -0.433594,0.4375 -0.765625,0.5625 l 1.28125,2.3125 V 0 H 3.8125 Z M 1.34375,-2.78125 h 1.109375 c 0.351563,0 0.632813,-0.09375 0.84375,-0.28125 C 3.515625,-3.25 3.625,-3.5 3.625,-3.8125 3.625,-4.144531 3.519531,-4.398438 3.3125,-4.578125 3.113281,-4.753906 2.828125,-4.847656 2.453125,-4.859375 H 1.34375 Z m 0,0"
           id="path81" />
      </g>
    </g>
  </g>
  <g
     fill="#fff6ed"
     fill-opacity="1"
     id="g95"
     transform="matrix(1.356907,0,0,1.356907,-52.530524,-26.360816)">
    <g
       transform="translate(115.38667,104.44572)"
       id="g93">
      <g
         id="g91">
        <path
           d="m 0.625,0 v -5.4375 h 1.546875 c 0.46875,0 0.882813,0.105469 1.25,0.3125 0.363281,0.210938 0.644531,0.507812 0.84375,0.890625 C 4.460938,-3.847656 4.5625,-3.40625 4.5625,-2.90625 v 0.34375 c 0,0.523438 -0.101562,0.976562 -0.296875,1.359375 C 4.066406,-0.816406 3.785156,-0.519531 3.421875,-0.3125 3.054688,-0.101562 2.628906,0 2.140625,0 Z m 0.71875,-4.859375 v 4.265625 h 0.765625 c 0.550781,0 0.976563,-0.171875 1.28125,-0.515625 0.3125,-0.34375 0.46875,-0.832031 0.46875,-1.46875 v -0.3125 c 0,-0.613281 -0.148437,-1.09375 -0.4375,-1.4375 C 3.128906,-4.671875 2.71875,-4.847656 2.1875,-4.859375 Z m 0,0"
           id="path89" />
      </g>
    </g>
  </g>
  <g
     fill="#fff6ed"
     fill-opacity="1"
     id="g103"
     transform="matrix(1.356907,0,0,1.356907,-52.530524,-26.360816)">
    <g
       transform="translate(124.23502,104.44572)"
       id="g101">
      <g
         id="g99">
        <path
           d="M 2.234375,-2.421875 C 1.617188,-2.597656 1.171875,-2.816406 0.890625,-3.078125 0.609375,-3.335938 0.46875,-3.65625 0.46875,-4.03125 c 0,-0.425781 0.171875,-0.78125 0.515625,-1.0625 0.34375,-0.28125 0.789063,-0.421875 1.34375,-0.421875 0.363281,0 0.691406,0.074219 0.984375,0.21875 0.300781,0.148437 0.53125,0.34375 0.6875,0.59375 0.164062,0.25 0.25,0.527344 0.25,0.828125 H 3.515625 c 0,-0.320312 -0.105469,-0.578125 -0.3125,-0.765625 -0.210937,-0.1875 -0.5,-0.28125 -0.875,-0.28125 -0.355469,0 -0.632813,0.078125 -0.828125,0.234375 -0.199219,0.15625 -0.296875,0.371094 -0.296875,0.640625 0,0.21875 0.09375,0.40625 0.28125,0.5625 0.1875,0.15625 0.503906,0.296875 0.953125,0.421875 0.457031,0.125 0.8125,0.265625 1.0625,0.421875 0.257812,0.15625 0.445312,0.339844 0.5625,0.546875 0.125,0.199219 0.1875,0.433594 0.1875,0.703125 0,0.449219 -0.171875,0.808594 -0.515625,1.078125 -0.34375,0.2617188 -0.804687,0.390625 -1.375,0.390625 -0.375,0 -0.726563,-0.07421875 -1.046875,-0.21875 -0.324219,-0.144531 -0.574219,-0.34375 -0.75,-0.59375 -0.179688,-0.25 -0.265625,-0.53125 -0.265625,-0.84375 h 0.71875 c 0,0.335937 0.117187,0.59375 0.359375,0.78125 0.25,0.1875 0.578125,0.28125 0.984375,0.28125 0.375,0 0.660156,-0.070313 0.859375,-0.21875 C 3.425781,-0.890625 3.53125,-1.101562 3.53125,-1.375 3.53125,-1.644531 3.4375,-1.851562 3.25,-2 3.0625,-2.144531 2.722656,-2.285156 2.234375,-2.421875 Z m 0,0"
           id="path97" />
      </g>
    </g>
  </g>
  <g
     fill="#fff6ed"
     fill-opacity="1"
     id="g111"
     transform="matrix(1.356907,0,0,1.356907,-52.530524,-26.360816)">
    <g
       transform="translate(132.60488,104.44572)"
       id="g109">
      <g
         id="g107">
        <path
           d="M 4.640625,-1.734375 C 4.566406,-1.148438 4.351562,-0.703125 4,-0.390625 c -0.355469,0.3125 -0.828125,0.46875 -1.421875,0.46875 -0.648437,0 -1.167969,-0.226563 -1.5625,-0.6875 C 0.628906,-1.078125 0.4375,-1.695312 0.4375,-2.46875 v -0.515625 c 0,-0.507813 0.085938,-0.957031 0.265625,-1.34375 0.1875,-0.382813 0.445313,-0.675781 0.78125,-0.875 0.332031,-0.207031 0.71875,-0.3125 1.15625,-0.3125 0.570313,0 1.03125,0.164063 1.375,0.484375 0.351563,0.324219 0.5625,0.773438 0.625,1.34375 h -0.71875 c -0.0625,-0.4375 -0.199219,-0.75 -0.40625,-0.9375 -0.210937,-0.195312 -0.5,-0.296875 -0.875,-0.296875 -0.460937,0 -0.820313,0.171875 -1.078125,0.515625 -0.261719,0.335938 -0.390625,0.8125 -0.390625,1.4375 v 0.53125 c 0,0.585938 0.117187,1.054688 0.359375,1.40625 0.25,0.34375 0.597656,0.515625 1.046875,0.515625 0.394531,0 0.695313,-0.085937 0.90625,-0.265625 0.21875,-0.175781 0.363281,-0.492188 0.4375,-0.953125 z m 0,0"
           id="path105" />
      </g>
    </g>
  </g>
  <g
     fill="#fff6ed"
     fill-opacity="1"
     id="g119"
     transform="matrix(1.356907,0,0,1.356907,-52.530524,-26.360816)">
    <g
       transform="translate(141.41585,104.44572)"
       id="g117">
      <g
         id="g115">
        <path
           d="M 3.640625,-1.421875 H 1.359375 L 0.84375,0 H 0.109375 L 2.1875,-5.4375 h 0.625 L 4.890625,0 H 4.15625 Z m -2.0625,-0.59375 h 1.84375 L 2.5,-4.5625 Z m 0,0"
           id="path113" />
      </g>
    </g>
  </g>
  <g
     fill="#fff6ed"
     fill-opacity="1"
     id="g127"
     transform="matrix(1.356907,0,0,1.356907,-52.530524,-26.360816)">
    <g
       transform="translate(150.23803,104.44572)"
       id="g125">
      <g
         id="g123">
        <path
           d="M 1.34375,-2.125 V 0 H 0.625 v -5.4375 h 2.015625 c 0.59375,0 1.054687,0.152344 1.390625,0.453125 0.34375,0.304687 0.515625,0.703125 0.515625,1.203125 0,0.53125 -0.167969,0.945312 -0.5,1.234375 C 3.722656,-2.265625 3.25,-2.125 2.625,-2.125 Z m 0,-0.59375 h 1.296875 c 0.382813,0 0.675781,-0.085938 0.875,-0.265625 0.207031,-0.1875 0.3125,-0.445313 0.3125,-0.78125 0,-0.332031 -0.105469,-0.59375 -0.3125,-0.78125 C 3.316406,-4.742188 3.039062,-4.847656 2.6875,-4.859375 H 1.34375 Z m 0,0"
           id="path121" />
      </g>
    </g>
  </g>
  <g
     fill="#fff6ed"
     fill-opacity="1"
     id="g135"
     transform="matrix(1.356907,0,0,1.356907,-52.530524,-26.360816)">
    <g
       transform="translate(158.89573,104.44572)"
       id="g133">
      <g
         id="g131">
        <path
           d="M 3.703125,-2.515625 H 1.34375 v 1.921875 h 2.75 V 0 H 0.625 v -5.4375 h 3.421875 v 0.578125 H 1.34375 v 1.75 h 2.359375 z m 0,0"
           id="path129" />
      </g>
    </g>
  </g>
  <g
     fill="#fff6ed"
     fill-opacity="1"
     id="g143"
     transform="matrix(1.356907,0,0,1.356907,-52.530524,-26.360816)">
    <g
       transform="translate(95.366051,114.65353)"
       id="g141">
      <g
         id="g139">
        <path
           d="M 1.34375,-2.125 V 0 H 0.625 v -5.4375 h 2.015625 c 0.59375,0 1.054687,0.152344 1.390625,0.453125 0.34375,0.304687 0.515625,0.703125 0.515625,1.203125 0,0.53125 -0.167969,0.945312 -0.5,1.234375 C 3.722656,-2.265625 3.25,-2.125 2.625,-2.125 Z m 0,-0.59375 h 1.296875 c 0.382813,0 0.675781,-0.085938 0.875,-0.265625 0.207031,-0.1875 0.3125,-0.445313 0.3125,-0.78125 0,-0.332031 -0.105469,-0.59375 -0.3125,-0.78125 C 3.316406,-4.742188 3.039062,-4.847656 2.6875,-4.859375 H 1.34375 Z m 0,0"
           id="path137" />
      </g>
    </g>
  </g>
  <g
     fill="#fff6ed"
     fill-opacity="1"
     id="g151"
     transform="matrix(1.356907,0,0,1.356907,-52.530524,-26.360816)">
    <g
       transform="translate(104.02375,114.65353)"
       id="g149">
      <g
         id="g147">
        <path
           d="M 2.625,-2.203125 H 1.34375 V 0 H 0.625 v -5.4375 h 1.8125 c 0.601562,0 1.070312,0.140625 1.40625,0.421875 0.332031,0.273437 0.5,0.671875 0.5,1.203125 0,0.34375 -0.09375,0.640625 -0.28125,0.890625 -0.179688,0.25 -0.433594,0.4375 -0.765625,0.5625 l 1.28125,2.3125 V 0 H 3.8125 Z M 1.34375,-2.78125 h 1.109375 c 0.351563,0 0.632813,-0.09375 0.84375,-0.28125 C 3.515625,-3.25 3.625,-3.5 3.625,-3.8125 3.625,-4.144531 3.519531,-4.398438 3.3125,-4.578125 3.113281,-4.753906 2.828125,-4.847656 2.453125,-4.859375 H 1.34375 Z m 0,0"
           id="path145" />
      </g>
    </g>
  </g>
  <g
     fill="#fff6ed"
     fill-opacity="1"
     id="g159"
     transform="matrix(1.356907,0,0,1.356907,-52.530524,-26.360816)">
    <g
       transform="translate(112.56557,114.65353)"
       id="g157">
      <g
         id="g155">
        <path
           d="m 4.8125,-2.546875 c 0,0.53125 -0.089844,1 -0.265625,1.40625 -0.179687,0.398437 -0.433594,0.699219 -0.765625,0.90625 -0.324219,0.2109375 -0.703125,0.3125 -1.140625,0.3125 -0.429687,0 -0.808594,-0.1015625 -1.140625,-0.3125 C 1.164062,-0.453125 0.90625,-0.753906 0.71875,-1.140625 0.539062,-1.535156 0.445312,-1.988281 0.4375,-2.5 v -0.390625 c 0,-0.519531 0.085938,-0.976563 0.265625,-1.375 0.1875,-0.40625 0.445313,-0.710937 0.78125,-0.921875 0.332031,-0.21875 0.710937,-0.328125 1.140625,-0.328125 0.4375,0 0.820312,0.105469 1.15625,0.3125 0.332031,0.210937 0.585938,0.515625 0.765625,0.921875 0.175781,0.398438 0.265625,0.859375 0.265625,1.390625 z M 4.109375,-2.890625 C 4.109375,-3.535156 3.976562,-4.03125 3.71875,-4.375 3.457031,-4.726562 3.09375,-4.90625 2.625,-4.90625 c -0.449219,0 -0.804688,0.179688 -1.0625,0.53125 -0.261719,0.34375 -0.398438,0.820312 -0.40625,1.421875 v 0.40625 c 0,0.625 0.128906,1.121094 0.390625,1.484375 0.257813,0.355469 0.625,0.53125 1.09375,0.53125 0.457031,0 0.8125,-0.164062 1.0625,-0.5 C 3.960938,-1.375 4.097656,-1.863281 4.109375,-2.5 Z m 0,0"
           id="path153" />
      </g>
    </g>
  </g>
  <g
     fill="#fff6ed"
     fill-opacity="1"
     id="g167"
     transform="matrix(1.356907,0,0,1.356907,-52.530524,-26.360816)">
    <g
       transform="translate(121.6569,114.65353)"
       id="g165">
      <g
         id="g163">
        <path
           d="M 2.234375,-2.421875 C 1.617188,-2.597656 1.171875,-2.816406 0.890625,-3.078125 0.609375,-3.335938 0.46875,-3.65625 0.46875,-4.03125 c 0,-0.425781 0.171875,-0.78125 0.515625,-1.0625 0.34375,-0.28125 0.789063,-0.421875 1.34375,-0.421875 0.363281,0 0.691406,0.074219 0.984375,0.21875 0.300781,0.148437 0.53125,0.34375 0.6875,0.59375 0.164062,0.25 0.25,0.527344 0.25,0.828125 H 3.515625 c 0,-0.320312 -0.105469,-0.578125 -0.3125,-0.765625 -0.210937,-0.1875 -0.5,-0.28125 -0.875,-0.28125 -0.355469,0 -0.632813,0.078125 -0.828125,0.234375 -0.199219,0.15625 -0.296875,0.371094 -0.296875,0.640625 0,0.21875 0.09375,0.40625 0.28125,0.5625 0.1875,0.15625 0.503906,0.296875 0.953125,0.421875 0.457031,0.125 0.8125,0.265625 1.0625,0.421875 0.257812,0.15625 0.445312,0.339844 0.5625,0.546875 0.125,0.199219 0.1875,0.433594 0.1875,0.703125 0,0.449219 -0.171875,0.808594 -0.515625,1.078125 -0.34375,0.2617188 -0.804687,0.390625 -1.375,0.390625 -0.375,0 -0.726563,-0.07421875 -1.046875,-0.21875 -0.324219,-0.144531 -0.574219,-0.34375 -0.75,-0.59375 -0.179688,-0.25 -0.265625,-0.53125 -0.265625,-0.84375 h 0.71875 c 0,0.335937 0.117187,0.59375 0.359375,0.78125 0.25,0.1875 0.578125,0.28125 0.984375,0.28125 0.375,0 0.660156,-0.070313 0.859375,-0.21875 C 3.425781,-0.890625 3.53125,-1.101562 3.53125,-1.375 3.53125,-1.644531 3.4375,-1.851562 3.25,-2 3.0625,-2.144531 2.722656,-2.285156 2.234375,-2.421875 Z m 0,0"
           id="path161" />
      </g>
    </g>
  </g>
  <g
     fill="#fff6ed"
     fill-opacity="1"
     id="g173">
    <g
       transform="translate(130.026761, 114.653529)"
       id="g171">
      <g
         id="g169" />
    </g>
  </g>
  <g
     fill="#fff6ed"
     fill-opacity="1"
     id="g181"
     transform="matrix(1.356907,0,0,1.356907,-52.530524,-26.360816)">
    <g
       transform="translate(135.74996,114.65353)"
       id="g179">
      <g
         id="g177">
        <path
           d="M 1.359375,-0.59375 H 3.9375 V 0 H 0.625 v -5.4375 h 0.734375 z m 0,0"
           id="path175" />
      </g>
    </g>
  </g>
  <g
     fill="#fff6ed"
     fill-opacity="1"
     id="g189"
     transform="matrix(1.356907,0,0,1.356907,-52.530524,-26.360816)">
    <g
       transform="translate(143.6974,114.65353)"
       id="g187">
      <g
         id="g185">
        <path
           d="M 1.359375,-0.59375 H 3.9375 V 0 H 0.625 v -5.4375 h 0.734375 z m 0,0"
           id="path183" />
      </g>
    </g>
  </g>
  <g
     fill="#fff6ed"
     fill-opacity="1"
     id="g197"
     transform="matrix(1.356907,0,0,1.356907,-52.530524,-26.360816)">
    <g
       transform="translate(151.64485,114.65353)"
       id="g195">
      <g
         id="g193">
        <path
           d="M 4.640625,-1.734375 C 4.566406,-1.148438 4.351562,-0.703125 4,-0.390625 c -0.355469,0.3125 -0.828125,0.46875 -1.421875,0.46875 -0.648437,0 -1.167969,-0.226563 -1.5625,-0.6875 C 0.628906,-1.078125 0.4375,-1.695312 0.4375,-2.46875 v -0.515625 c 0,-0.507813 0.085938,-0.957031 0.265625,-1.34375 0.1875,-0.382813 0.445313,-0.675781 0.78125,-0.875 0.332031,-0.207031 0.71875,-0.3125 1.15625,-0.3125 0.570313,0 1.03125,0.164063 1.375,0.484375 0.351563,0.324219 0.5625,0.773438 0.625,1.34375 h -0.71875 c -0.0625,-0.4375 -0.199219,-0.75 -0.40625,-0.9375 -0.210937,-0.195312 -0.5,-0.296875 -0.875,-0.296875 -0.460937,0 -0.820313,0.171875 -1.078125,0.515625 -0.261719,0.335938 -0.390625,0.8125 -0.390625,1.4375 v 0.53125 c 0,0.585938 0.117187,1.054688 0.359375,1.40625 0.25,0.34375 0.597656,0.515625 1.046875,0.515625 0.394531,0 0.695313,-0.085937 0.90625,-0.265625 0.21875,-0.175781 0.363281,-0.492188 0.4375,-0.953125 z m 0,0"
           id="path191" />
      </g>
    </g>
  </g>
  <g
     clip-path="url(#19327fcaf3)"
     id="g201"
     transform="matrix(1.356907,0,0,1.356907,-52.530524,-26.360816)">
    <path
       fill="#5dafbd"
       d="m 129.10937,30.652344 c 6.46094,0 12.28907,2.703125 16.41407,7.046875 l -5.19532,5.195312 c -2.79296,-3.015625 -6.78515,-4.902343 -11.21875,-4.902343 -8.44531,0 -15.28906,6.847656 -15.28906,15.292968 0,3.296875 1.04297,6.351563 2.82032,8.851563 -2.77344,-0.06641 -5.51954,0.03516 -8.19922,0.378906 -1.26172,-2.816406 -1.96485,-5.941406 -1.96485,-9.230469 0,-12.5 10.13282,-22.632812 22.63281,-22.632812 z m 33.51954,31.921875 c -4.73047,3.789062 -13.58594,4.734375 -26.56641,2.828125 -16.16016,-2.359375 -34.26172,-5.503906 -46.691406,7.460937 4.941406,-5.15625 12.757816,-6.359375 21.539066,-6.121093 0.44531,0.601562 0.91797,1.179687 1.41797,1.730468 7.80078,-0.367187 15.98828,0.941406 23.73437,2.074219 2.38672,0.347656 4.63281,0.601563 6.74219,0.761719 0.74609,-0.570313 1.45703,-1.183594 2.125,-1.839844 7.66015,-0.113281 14.07812,-1.730469 17.69922,-6.894531 z m -23.32422,2.105469 c 0.35547,-0.320313 0.69531,-0.652344 1.02343,-1.003907 l 1.23438,1.238281 c -0.73438,-0.06641 -1.48828,-0.144531 -2.25781,-0.234374 z m -5.17188,10.679687 c -1.61719,0.367187 -3.29687,0.558594 -5.02344,0.558594 -3.44921,0 -6.71874,-0.773438 -9.64453,-2.152344 C 107.35156,72.585938 95.875,72.523438 89.371094,79.308594 101.80078,66.339844 119.90234,69.484375 136.0625,71.84375 c 12.98047,1.90625 21.83594,0.964844 26.56641,-2.824219 -5.23047,7.457031 -16.28125,7.519531 -28.4961,6.339844 z m 0,0"
       fill-opacity="1"
       fill-rule="evenodd"
       id="path199" />
  </g>
</svg>
